<svg width="38" height="38" viewBox="0 0 38 38" fill="none" xmlns="http://www.w3.org/2000/svg">
<path d="M3.16667 12.667V9.32013C3.16667 6.62506 3.16667 5.27753 4.0255 4.83556C4.88433 4.39359 5.98085 5.17683 8.17391 6.7433L10.6775 8.53161C11.6527 9.22812 12.1402 9.57638 12.4034 10.0879C12.6667 10.5994 12.6667 11.1985 12.6667 12.3968V25.6033C12.6667 26.8015 12.6667 27.4007 12.4034 27.9122C12.1402 28.4237 11.6527 28.772 10.6776 29.4685L8.17393 31.2567C5.98085 32.8233 4.88433 33.6064 4.0255 33.1645C3.16667 32.7226 3.16667 31.375 3.16667 28.6798V19.0003" stroke="white" stroke-width="3" stroke-linecap="round"/>
<path d="M34.8333 19.0003V9.32013C34.8333 6.62506 34.8333 5.27753 33.9745 4.83556C33.1157 4.39359 32.0191 5.17683 29.826 6.7433L27.3225 8.53161C26.3473 9.22812 25.8598 9.57638 25.5965 10.0879C25.3333 10.5994 25.3333 11.1985 25.3333 12.3968V25.6033C25.3333 26.8015 25.3333 27.4007 25.5965 27.9122C25.8598 28.4237 26.3473 28.772 27.3225 29.4685L29.826 31.2567C32.0191 32.8233 33.1157 33.6064 33.9745 33.1645C34.8333 32.7226 34.8333 31.375 34.8333 28.6798V25.4234" stroke="white" stroke-width="3" stroke-linecap="round"/>
<path d="M19 22.1666V15.8333M19 9.49996V3.16663M19 34.8333V28.5" stroke="white" stroke-width="3" stroke-linecap="round"/>
</svg>
