<svg width="33" height="22" viewBox="0 0 33 22" fill="none" xmlns="http://www.w3.org/2000/svg">
<path fill-rule="evenodd" clip-rule="evenodd" d="M16.5 4.71429C16.5 4.15957 16.6188 3.14286 16.8036 3.14286H0V6.28571H16.8036C16.6188 6.28571 16.5 5.269 16.5 4.71429ZM29.3964 3.14286C28.7149 1.57143 26.9016 0 24.75 0C22.0159 0 19.8 2.11043 19.8 4.71429C19.8 7.31814 22.0159 9.42857 24.75 9.42857C26.9016 9.42857 28.7149 7.85714 29.3964 6.28571H33V3.14286H29.3964ZM16.5 17.2857C16.5 17.8404 16.3812 18.3637 16.1964 18.8571H33V15.7143H16.1964C16.3812 15.7143 16.5 16.731 16.5 17.2857ZM13.2 17.2857C13.2 19.8896 10.984 22 8.25 22C6.0984 22 4.28505 20.4286 3.6036 18.8571H0V15.7143H3.6036C4.28505 14.1429 6.0984 12.5714 8.25 12.5714C10.984 12.5714 13.2 14.6819 13.2 17.2857Z" fill="#8F8F8F"/>
</svg>
