<svg width="38" height="38" viewBox="0 0 38 38" fill="none" xmlns="http://www.w3.org/2000/svg">
<path d="M12.6671 34.8334H9.32015C6.62508 34.8334 5.27755 34.8334 4.83558 33.9745C4.39361 33.1157 5.17685 32.0192 6.74333 29.8261L8.53164 27.3225C9.22815 26.3474 9.5764 25.8598 10.0879 25.5966C10.5994 25.3334 11.1986 25.3334 12.3969 25.3334H25.6033C26.8016 25.3334 27.4007 25.3334 27.9123 25.5966C28.4237 25.8598 28.772 26.3474 29.4685 27.3225L31.2567 29.8261C32.8233 32.0192 33.6064 33.1157 33.1645 33.9745C32.7226 34.8334 31.375 34.8334 28.6799 34.8334H19.0003" stroke="white" stroke-width="3" stroke-linecap="round"/>
<path d="M19.0003 3.16663H9.32015C6.62508 3.16663 5.27755 3.16663 4.83558 4.02543C4.39361 4.88423 5.17685 5.98084 6.74333 8.17392L8.53164 10.6775C9.22815 11.6527 9.5764 12.1402 10.0879 12.4035C10.5994 12.6666 11.1986 12.6666 12.3969 12.6666L25.6033 12.6666C26.8016 12.6666 27.4007 12.6666 27.9123 12.4035C28.4237 12.1402 28.772 11.6527 29.4685 10.6775L31.2567 8.17392C32.8233 5.98084 33.6064 4.88423 33.1645 4.02543C32.7226 3.16663 31.375 3.16663 28.6799 3.16663H25.4234" stroke="white" stroke-width="3" stroke-linecap="round"/>
<path d="M22.1667 19H15.8333M9.5 19H3.16666M34.8333 19L28.5 19" stroke="white" stroke-width="3" stroke-linecap="round"/>
</svg>
